<svg xmlns="http://www.w3.org/2000/svg" width="45" height="22" viewBox="0 0 45 22">
    <!-- Background rounded rectangle -->
    <path fill="#131F2B"
        d="M10.075,0.925L34.416,0.925A10.075,10.075 0,0 1,44.49 11L44.49,11A10.075,10.075 0,0 1,34.416 21.075L10.075,21.075A10.075,10.075 0,0 1,0 11L0,11A10.075,10.075 0,0 1,10.075 0.925z" />
    <!-- l letter -->
    <path fill="#ffffff"
        d="M21.426,15.106C21.005,15.188 20.593,15.223 20.188,15.211C19.784,15.198 19.424,15.12 19.106,14.976C18.788,14.831 18.549,14.604 18.388,14.295C18.244,14.019 18.166,13.738 18.153,13.454C18.145,13.165 18.141,12.839 18.141,12.476V6.569H19.44V12.415C19.44,12.683 19.442,12.916 19.446,13.114C19.454,13.312 19.498,13.479 19.576,13.615C19.725,13.87 19.96,14.017 20.281,14.054C20.607,14.087 20.989,14.072 21.426,14.011V15.106ZM16.861,9.464V8.425H21.426V9.464H16.861Z" />
    <!-- a letter -->
    <path fill="#ffffff"
        d="M23.855,15.291C23.36,15.291 22.945,15.2 22.611,15.019C22.278,14.833 22.024,14.59 21.851,14.289C21.682,13.984 21.597,13.65 21.597,13.287C21.597,12.949 21.657,12.652 21.776,12.396C21.896,12.14 22.073,11.924 22.308,11.747C22.544,11.565 22.832,11.419 23.174,11.307C23.471,11.221 23.807,11.144 24.183,11.078C24.558,11.012 24.952,10.951 25.364,10.893C25.781,10.835 26.193,10.777 26.601,10.72L26.131,10.979C26.139,10.456 26.028,10.068 25.797,9.817C25.57,9.561 25.179,9.433 24.622,9.433C24.271,9.433 23.95,9.516 23.657,9.68C23.364,9.841 23.16,10.109 23.045,10.485L21.838,10.113C22.003,9.54 22.317,9.085 22.778,8.746C23.244,8.408 23.863,8.239 24.634,8.239C25.232,8.239 25.752,8.342 26.193,8.548C26.639,8.751 26.964,9.072 27.17,9.513C27.278,9.732 27.344,9.963 27.368,10.206C27.393,10.45 27.406,10.712 27.406,10.992V15.106H26.261V13.578L26.484,13.776C26.208,14.287 25.855,14.668 25.426,14.92C25.001,15.167 24.478,15.291 23.855,15.291ZM24.084,14.233C24.451,14.233 24.766,14.169 25.03,14.042C25.294,13.91 25.507,13.743 25.667,13.54C25.828,13.338 25.933,13.128 25.983,12.91C26.053,12.712 26.092,12.489 26.1,12.241C26.113,11.994 26.119,11.796 26.119,11.648L26.539,11.802C26.131,11.864 25.76,11.92 25.426,11.969C25.092,12.019 24.789,12.068 24.517,12.118C24.249,12.163 24.01,12.219 23.799,12.285C23.622,12.347 23.463,12.421 23.323,12.507C23.187,12.594 23.077,12.699 22.995,12.823C22.917,12.947 22.878,13.097 22.878,13.274C22.878,13.448 22.921,13.608 23.007,13.757C23.094,13.901 23.226,14.017 23.403,14.103C23.581,14.19 23.807,14.233 24.084,14.233Z" />
    <!-- l letter (single) -->
    <path fill="#ffffff" d="M28.27,15.106V6.569H29.562V15.106H28.27Z" />
    <!-- y letter -->
    <path fill="#ffffff"
        d="M31.457,18.075L32.75,14.555L32.769,15.594L29.855,8.425H31.204L33.381,13.961H32.985L35.063,8.425H36.375L32.688,18.075H31.457Z" />
    <!-- W letter light part -->
    <path fill="#CAD3DB"
        d="M10.846,8.568C10.56,8.761 10.352,9.05 10.261,9.382C10.233,9.498 10.219,9.617 10.217,9.736V15.62L10.108,15.686C9.895,15.81 9.652,15.876 9.406,15.876C9.159,15.877 8.916,15.812 8.703,15.689C8.489,15.566 8.311,15.388 8.188,15.175C8.064,14.961 8,14.718 8,14.472V11.926C8,10.049 10.396,8.858 10.846,8.568Z" />
    <!-- W letter blue part -->
    <path fill="#0E85FF" fill-rule="evenodd"
        d="M8,11.926L8.003,11.925C8.003,10.244 9.926,9.112 10.65,8.687C10.72,8.646 10.778,8.611 10.823,8.584C10.853,8.563 10.884,8.543 10.915,8.525L14.629,6.364V6.334C14.629,6.086 14.564,5.842 14.44,5.628C14.316,5.413 14.138,5.235 13.923,5.112C13.708,4.988 13.464,4.924 13.216,4.925C12.968,4.927 12.725,4.993 12.512,5.119L8.699,7.34C8.487,7.464 8.31,7.641 8.188,7.855C8.065,8.068 8,8.309 8,8.555V11.926Z" />
</svg>
